<?xml version="1.0" standalone="no"?>
<!DOCTYPE svg PUBLIC "-//W3C//DTD SVG 1.1//EN" "http://www.w3.org/Graphics/SVG/1.1/DTD/svg11.dtd" >
<svg xmlns="http://www.w3.org/2000/svg">
<metadata>Generated by IcoMoon</metadata>
<defs>
<font id="tedgent" horiz-adv-x="1024">
<font-face units-per-em="1024" ascent="960" descent="-64" />
<missing-glyph horiz-adv-x="1024" />
<glyph unicode="&#x20;" horiz-adv-x="512" d="" />
<glyph unicode="&#xe900;" glyph-name="arrow-left" d="M1011.81 465.067h-948.419l368.152 421.79-26.819 24.381-404.724-463.238 404.724-465.676 26.819 24.381-365.714 421.79h945.981z" />
<glyph unicode="&#xe901;" glyph-name="arrow-right" d="M0 465.067h948.419l-368.152 421.79 29.257 24.381 402.286-463.238-402.286-465.676-29.257 24.381 368.152 421.79h-948.419z" />
<glyph unicode="&#xe902;" glyph-name="bell" d="M860.742 209.713h-7.543v319.242c-0.808 146.555-94.56 276.677-233.842 323.283h0.269c0 59.538-48.223 107.761-107.761 107.761s-107.761-48.223-107.761-107.761c-139.012-46.876-233.033-176.998-233.303-323.822v-318.973h-7.543c-22.091 0-43.104-8.89-58.73-24.246l-0.808-1.078c-15.087-15.356-23.438-36.1-23.438-57.652 0-22.091 8.89-43.104 24.246-58.46 15.625-15.625 36.639-24.246 58.46-24.246h265.631v-24.246c0-22.091 8.89-43.374 24.516-58.999l1.078-0.808c32.598-31.79 84.592-31.251 116.651 0.808 15.625 15.625 24.516 36.908 24.516 58.999v24.246h265.362c22.091 0 43.104 8.89 58.46 24.246 15.625 15.625 24.516 36.908 24.246 58.999 0 45.529-36.908 82.707-82.707 82.707zM495.971 919.32c40.41 8.89 80.282-16.703 89.172-57.113-19.397 4.31-39.063 6.735-58.73 7.543h-26.671c-20.475-0.808-40.949-3.233-60.885-7.813 6.196 28.826 28.557 51.187 57.113 57.383zM203.669 528.686c0.539 165.413 131.199 301.462 296.612 308.197h11.854v-0.269h11.854c165.413-6.735 296.074-142.783 296.612-308.197v-318.703h-616.932v318.973zM547.696-15.777c-19.397-19.397-50.917-19.936-70.584-0.808l-0.808 0.808c-9.429 9.429-14.817 22.36-14.817 35.561v24.246h101.026v-24.246c0-13.47-5.119-26.132-14.817-35.561zM896.303 91.445c-9.429-9.429-22.091-14.548-35.561-14.548h-697.214c-27.748 0-50.109 22.36-50.109 50.109 0 12.931 4.849 25.324 14.009 34.753l0.808 0.539c9.429 9.429 22.091 14.817 35.292 14.817h697.214c27.748 0 50.109-22.36 50.109-50.109 0-13.47-5.388-26.132-14.548-35.561zM512.135-65.886c-21.552 0-42.835 8.082-59.269 23.977l-0.808 0.808c-15.895 15.895-25.054 37.986-25.054 60.346v22.091h-263.476c-22.63 0-43.913 8.89-60.077 25.054-15.895 15.625-25.054 37.716-25.054 59.807s8.621 43.104 23.977 58.999l0.808 0.808c15.895 15.895 37.716 25.054 60.077 25.054 0 0 0 0 0 0h5.388v317.356c0.539 147.363 94.291 277.754 233.303 325.169 0.808 59.807 49.84 108.3 109.647 108.3 60.077 0 109.108-48.493 109.647-108.569 139.012-47.415 232.764-177.536 233.303-324.63v-317.087h5.388c46.876 0 84.862-38.255 84.862-84.862 0-22.63-8.89-44.451-25.054-60.346-15.625-15.895-37.716-25.054-59.807-25.054h-263.207v-22.091c0-22.63-9.16-44.451-25.054-60.346-15.895-16.434-37.716-24.785-59.538-24.785zM163.258 207.289c-21.283 0-42.027-8.621-57.113-23.707l-0.808-0.808c-14.817-15.087-22.899-35.292-22.899-56.305 0-21.283 8.621-42.027 23.707-57.113 15.356-15.356 35.561-23.707 57.113-23.707h267.517v-26.132c0-21.552 8.621-42.296 23.977-57.383l0.808-0.808c31.79-30.981 82.707-30.443 113.957 0.808 15.087 15.087 23.977 36.1 23.977 57.383v26.132h267.248c21.283 0 42.027 8.621 57.113 23.707s23.977 36.1 23.707 57.383c0 44.721-36.369 80.821-81.090 81.090h-9.429v321.128c-0.808 145.747-94.022 275.060-232.225 321.398l-5.657 1.886 4.58 1.616c-0.808 57.652-47.954 104.259-105.606 104.259-58.191 0-105.875-47.415-105.875-105.875v-1.347l-1.347-0.539c-138.473-46.607-231.686-175.92-231.956-321.936v-321.128h-9.699c0 0 0 0 0 0zM512.135-32.749c-13.201 0-26.132 4.849-36.369 14.548l-0.808 0.808c-9.699 9.699-15.356 23.169-15.356 37.178v26.132h105.067v-26.132c0-13.74-5.657-27.479-15.356-37.178-10.237-10.237-23.707-15.356-37.178-15.356zM463.373 41.875v-22.091c0-12.662 5.119-25.324 14.278-34.214l0.808-0.808c18.858-18.050 49.301-17.781 67.89 0.808v0c9.16 8.89 14.278 21.552 14.278 34.214v22.091h-97.254zM860.742 74.742c0 0 0 0 0 0h-697.214c-28.557 0-51.995 23.438-52.264 51.995 0 13.47 5.119 26.401 14.548 36.1l0.808 0.808c9.699 9.699 22.63 15.087 36.639 15.356h697.214c28.557 0 51.995-23.438 51.995-51.995 0-13.74-5.388-27.21-15.087-36.908v0c-9.429-9.699-22.899-15.356-36.639-15.356zM163.258 174.96c-12.931 0-24.785-5.119-33.945-14.278l-0.808-0.808c-8.351-8.89-13.201-20.744-13.201-33.137 0-26.401 21.552-47.954 48.223-48.223h697.214c0 0 0 0 0 0 12.662 0 25.054 5.119 33.945 14.009v0c8.89 8.89 14.009 21.283 14.009 33.945 0 26.401-21.822 47.954-48.223 48.223h-697.214zM822.487 207.827h-620.973v320.859c0.539 167.030 131.738 303.348 298.498 310.083h14.009v-0.269h9.968c167.030-7.004 297.959-143.053 298.498-310.083v-320.589zM205.554 211.868h612.891v316.548c-0.539 164.875-129.852 299.306-294.727 306.311h-13.74v0.269h-9.699c-164.875-7.004-294.188-141.436-294.727-306.311v-316.818zM436.163 859.513l0.808 2.963c6.466 29.365 29.365 52.264 58.73 58.73v0c41.488 9.16 82.437-17.242 91.597-58.73l0.808-2.963-2.963 0.808c-19.128 4.31-38.794 6.735-58.46 7.543h-26.671c-20.205-0.808-40.68-3.233-60.616-7.813l-3.233-0.539zM514.021 871.636h12.393c18.858-0.808 37.716-3.233 56.036-7.004-9.968 37.447-47.684 60.885-85.939 52.534v0c-26.671-5.927-47.954-26.401-54.958-52.534 19.128 4.041 38.794 6.466 58.191 7.004h14.278z" />
<glyph unicode="&#xe903;" glyph-name="check" d="M354.171 94.536c-9.886 0-19.782 3.764-27.3 11.339l-315.552 315.552c-15.093 15.093-15.093 39.563 0 54.656s39.563 15.093 54.666 0l288.242-288.242 603.794 603.794c15.093 15.093 39.563 15.093 54.656 0s15.093-39.572 0-54.666l-631.094-631.094c-7.632-7.575-17.518-11.339-27.413-11.339z" />
<glyph unicode="&#xe904;" glyph-name="text" horiz-adv-x="1111" d="M359.844 198.108l-57.753 146.603h-186.586l-55.531-146.603h-59.974l186.586 477.57h53.31l182.143-477.57h-62.195zM286.542 398.022l-53.31 144.382-22.213 71.080c-6.664-26.655-13.328-48.868-19.991-71.080l-53.31-144.382h148.824zM701.918 198.108l-13.328 48.868h-2.221c-17.77-22.213-35.54-37.761-53.31-44.425s-39.983-11.106-66.638-11.106c-35.54 0-62.195 8.885-82.187 26.655s-28.876 44.425-28.876 77.744c0 73.302 57.753 111.063 171.037 113.284l59.974 2.221v22.213c0 26.655-6.664 46.646-17.77 59.974s-31.098 19.991-55.531 19.991c-17.77 0-37.761-2.221-53.31-8.885s-33.319-11.106-48.868-17.77l-17.77 44.425c17.77 8.885 37.761 17.77 59.974 22.213s42.204 8.885 62.195 8.885c42.204 0 75.523-8.885 95.514-28.876s31.098-48.868 31.098-91.072v-244.338h-39.983zM579.748 238.091c33.319 0 57.753 8.885 77.744 26.655s28.876 42.204 28.876 75.523v33.319l-53.31-2.221c-39.983-2.221-71.080-8.885-88.85-19.991s-28.876-28.876-28.876-53.31c0-17.77 6.664-33.319 17.77-42.204s26.655-17.77 46.646-17.77zM846.299 233.649c0 8.885 0 15.549 2.221 19.991s4.443 11.106 8.885 13.328 8.885 6.664 13.328 8.885 11.106 2.221 15.549 2.221c6.664 0 11.106 0 15.549-2.221s8.885-4.443 13.328-8.885 6.664-8.885 8.885-13.328 2.221-13.328 2.221-19.991c0-8.885 0-15.549-2.221-19.991s-4.443-11.106-8.885-13.328-8.885-6.664-13.328-8.885c-4.443-2.221-11.106-2.221-15.549-2.221-6.664 0-11.106 0-15.549 2.221s-8.885 4.443-13.328 8.885-6.664 8.885-8.885 13.328-2.221 11.106-2.221 19.991zM1024 233.649c0 8.885 0 15.549 2.221 19.991s4.443 11.106 8.885 13.328 8.885 6.664 13.328 8.885 11.106 2.221 15.549 2.221c6.664 0 11.106 0 15.549-2.221s8.885-4.443 13.328-8.885 6.664-8.885 8.885-13.328 2.221-13.328 2.221-19.991c0-8.885 0-15.549-2.221-19.991s-4.443-11.106-8.885-13.328-8.885-6.664-13.328-8.885-11.106-2.221-15.549-2.221c-6.664 0-11.106 0-15.549 2.221s-8.885 4.443-13.328 8.885-6.664 8.885-8.885 13.328-2.221 11.106-2.221 19.991z" />
<glyph unicode="&#xe905;" glyph-name="checkbox" d="M490.664 277.336c-8.188 0-16.383 3.109-22.609 9.383l-138.672 138.664c-12.5 12.508-12.5 32.773 0 45.273 12.508 12.5 32.773 12.5 45.273 0l116.055-116.055 212.055 212.055c12.5 12.5 32.766 12.5 45.266 0s12.5-32.766 0-45.273l-234.664-234.664c-6.32-6.273-14.508-9.383-22.703-9.383zM906.664-64h-789.328c-64.727 0-117.336 52.609-117.336 117.336v789.328c0 64.727 52.609 117.336 117.336 117.336h789.328c64.727 0 117.336-52.609 117.336-117.336v-789.328c0-64.727-52.609-117.336-117.336-117.336zM117.336 896c-29.398 0-53.336-23.938-53.336-53.336v-789.328c0-29.398 23.938-53.336 53.336-53.336h789.328c29.398 0 53.336 23.938 53.336 53.336v789.328c0 29.398-23.938 53.336-53.336 53.336z" />
<glyph unicode="&#xe906;" glyph-name="clip" d="M624 16.6l-488.6 491.8c-97.4 98-97.4 258.4 0 356.4 116.8 117.6 276.2 76.4 352 0l430.6-433.4-29-29.2-428.6 433.4c-59.2 62.8-195.6 99-298.2 0-80.8-81.2-80.8-216.8 0-298l488.6-491.8c62.2-62.6 161.6-62.6 221.6 0 62.2 62.6 62.2 162.6 0 223l-416 421c-39.4 39.6-105.6 39.6-145 0s-39.4-106.2 0-145.8l362.4-364.8-29-29.2-362.4 364.6c-56 56.2-56 148 0 204.2s147 56.2 203 0l418.2-420.8c103.6-104.2 48.6-235 0-283.4-65.4-68.8-200-81.6-279.6 2z" />
<glyph unicode="&#xe907;" glyph-name="cross" d="M52.912-64.003c-13.489 0-26.977 5.131-37.225 15.456-20.574 20.574-20.574 53.929 0 74.502l918.614 918.614c20.574 20.574 53.929 20.574 74.502 0s20.574-53.929 0-74.515l-918.601-918.601c-10.325-10.261-23.814-15.456-37.29-15.456zM971.59-64.003c-13.489 0-26.964 5.131-37.225 15.456l-918.678 918.601c-20.574 20.587-20.574 53.942 0 74.515s53.929 20.574 74.515 0l918.601-918.614c20.574-20.574 20.574-53.929 0-74.502-10.325-10.261-23.801-15.456-37.213-15.456z" />
<glyph unicode="&#xe908;" glyph-name="down-arrow" d="M1011.488 712.821c-16.682 16.682-43.647 16.682-60.329 0l-439.161-439.159-439.159 439.159c-16.682 16.682-43.647 16.682-60.329 0s-16.682-43.647 0-60.329l469.324-469.324c8.32-8.32 19.242-12.502 30.165-12.502s21.846 4.182 30.165 12.502l469.324 469.324c16.68 16.682 16.68 43.647-0.002 60.329z" />
<glyph unicode="&#xe909;" glyph-name="download" d="M512 234.664c-17.664 0-32 14.336-32 32v661.336c0 17.664 14.336 32 32 32s32-14.336 32-32v-661.336c0-17.664-14.336-32-32-32zM512 234.664c-8.195 0-16.383 3.117-22.617 9.391l-170.664 170.664c-12.5 12.5-12.5 32.766 0 45.273 12.5 12.5 32.766 12.5 45.273 0l148.047-148.055 148.055 148.055c12.5 12.5 32.773 12.5 45.273 0 12.5-12.508 12.5-32.773 0-45.273l-170.672-170.664c-6.313-6.273-14.5-9.391-22.695-9.391zM906.664-64h-789.328c-64.727 0-117.336 52.609-117.336 117.336v192c0 17.664 14.336 32 32 32s32-14.336 32-32v-192c0-29.398 23.938-53.336 53.336-53.336h789.328c29.398 0 53.336 23.938 53.336 53.336v192c0 17.664 14.336 32 32 32s32-14.336 32-32v-192c0-64.727-52.609-117.336-117.336-117.336z" />
<glyph unicode="&#xe90a;" glyph-name="file" d="M619.378 919.993l-0.236 0.229c-4.307 4.443-10.25 6.929-16.45 6.857-0.764 0.036-1.536-0.036-2.286-0.236h-350.999c-63.093-0.014-114.228-51.157-114.257-114.257v-731.24c0.029-63.093 51.164-114.235 114.257-114.257h508.905c63.093 0.021 114.235 51.164 114.257 114.257v576.32c-0.043 6.050-2.414 11.857-6.629 16.214zM625.542 849.15l169.557-169.099h-101c-37.814 0.114-68.45 30.743-68.557 68.55zM758.542 13.017h-509.134c-37.814 0.107-68.435 30.743-68.557 68.557v731.248c0.121 37.807 30.743 68.443 68.557 68.55h330.435v-132.771c0.021-63.086 51.164-114.228 114.257-114.257h132.771v-552.77c0.071-37.8-30.528-68.507-68.328-68.557z" />
<glyph unicode="&#xe90b;" glyph-name="list" d="M984 488h-695.476c-22.092 0-40-17.908-40-40s17.908-40 40-40h695.476c22.092 0 40 17.908 40 40s-17.908 40-40 40zM984 788h-695.476c-22.092 0-40-17.908-40-40s17.908-40 40-40h695.476c22.092 0 40 17.908 40 40s-17.908 40-40 40zM984 188h-695.476c-22.092 0-40-17.908-40-40s17.908-40 40-40h695.476c22.092 0 40 17.908 40 40s-17.908 40-40 40zM108 748c0-29.823-24.177-54-54-54s-54 24.177-54 54c0 29.823 24.177 54 54 54s54-24.177 54-54zM108 448c0-29.823-24.177-54-54-54s-54 24.177-54 54c0 29.823 24.177 54 54 54s54-24.177 54-54zM108 148c0-29.823-24.177-54-54-54s-54 24.177-54 54c0 29.823 24.177 54 54 54s54-24.177 54-54z" />
<glyph unicode="&#xe90c;" glyph-name="minus" d="M985.603 408.803h-947.203c-21.197 0-38.4 17.203-38.4 38.4s17.203 38.4 38.4 38.4h947.203c21.197 0 38.4-17.203 38.4-38.4s-17.203-38.4-38.4-38.4z" />
<glyph unicode="&#xe90d;" glyph-name="moon" d="M404 955c-144.4-32-265.8-122.2-339.4-252-27.8-48.8-49.6-112.2-60-174-5.2-31.6-5.2-124.4 0-155.6 9.2-54.4 24-100.8 47.2-148.4 26.6-54.2 56.4-95.6 101-140 76.2-75.8 169.2-123.8 278.6-143.2 34.2-6.2 107.4-7.6 144.6-2.8 173.6 22 320.6 124.4 398.8 277.6 26.4 51.6 49.2 125.2 49.2 158.4 0 18.2-12.2 31-30.6 32.6-16 1.2-23.6-3.4-40.4-25.6-32.4-42.4-91.2-87.6-140.8-107.8-141-58.2-292.8-28.2-398.6 78.4-104 104.8-132.8 256.2-75.4 395.6 20.2 49.6 65.4 108.4 107.8 140.8 22.2 16.8 26.8 24.4 25.6 40.4-1 12-5.2 19.2-15.6 26.2-8.6 5.8-23.8 5.6-52-0.6zM435 924.4c-1.2-0.8-8.4-6.6-16.2-13-7.6-6.2-22.6-20-33-30.8-101.4-104.4-137-257-92.4-395.6 19-59 49-108.8 93.6-154.6 82-84.8 197.8-128.6 314-118.4 78.2 6.6 144.4 31.8 207.4 78.4 20.4 15.2 54.8 48.4 69.6 67.4 6 7.6 11.2 13.6 11.6 13.4 1.6-1.8-9.2-46-17.8-72.2-16.2-48.8-45.8-103.6-79.4-147-16.8-21.4-54.2-59.2-76.4-76.6-73-58-158.4-93.2-251-103.4-23.6-2.6-76-2.6-100.6 0-86.6 9.4-171.8 44.2-243.4 99-23.2 17.8-68.2 62.8-86 86-54.8 71.6-89.6 156.8-99 243.4-2.6 24.6-2.6 77 0 100.6 10.2 92.6 45.4 178 103.4 251 17.4 22.2 55.2 59.6 76.6 76.4 57.2 44.4 131.2 79.6 196 93.2 21.6 4.6 25.6 5.2 23 2.8z" />
<glyph unicode="&#xe90e;" glyph-name="more" d="M640 448c0-70.695-57.305-128-128-128s-128 57.305-128 128 57.305 128 128 128 128-57.305 128-128zM640 832c0-70.695-57.305-128-128-128s-128 57.305-128 128 57.305 128 128 128 128-57.305 128-128zM640 64c0-70.695-57.305-128-128-128s-128 57.305-128 128 57.305 128 128 128 128-57.305 128-128z" />
<glyph unicode="&#xe90f;" glyph-name="more-1" d="M640 448c0-70.695-57.305-128-128-128s-128 57.305-128 128 57.305 128 128 128 128-57.305 128-128zM256 448c0-70.695-57.305-128-128-128s-128 57.305-128 128 57.305 128 128 128 128-57.305 128-128zM1024 448c0-70.695-57.305-128-128-128s-128 57.305-128 128 57.305 128 128 128 128-57.305 128-128z" />
<glyph unicode="&#xe910;" glyph-name="plus" d="M985.603 409.603h-947.203c-21.197 0-38.4 17.203-38.4 38.4s17.203 38.4 38.4 38.4h947.203c21.197 0 38.4-17.203 38.4-38.4s-17.203-38.4-38.4-38.4zM511.997-64.003c-21.197 0-38.4 17.203-38.4 38.4v947.203c0 21.197 17.203 38.4 38.4 38.4s38.4-17.203 38.4-38.4v-947.203c0-21.197-17.203-38.4-38.4-38.4z" />
<glyph unicode="&#xe911;" glyph-name="number" horiz-adv-x="1111" d="M239.896 198.108h-55.531v295.427c0 8.885 0 19.991 0 28.876s0 22.213 0 31.098 0 19.991 0 31.098 0 17.77 0 24.434c-4.443-4.443-6.664-6.664-8.885-11.106s-6.664-4.443-8.885-8.885-6.664-4.443-8.885-8.885-6.664-6.664-11.106-11.106l-48.868-39.983-31.098 46.646 124.39 97.735h48.868v-475.349zM704.139 198.108h-295.427v51.089l113.284 124.39c15.549 17.77 31.098 33.319 44.425 48.868s24.434 28.876 33.319 42.204 15.549 28.876 19.991 42.204 6.664 28.876 6.664 46.646c0 13.328-2.221 24.434-4.443 33.319s-8.885 17.77-15.549 24.434c-6.664 6.664-15.549 11.106-24.434 15.549s-19.991 4.443-31.098 4.443c-19.991 0-39.983-4.443-55.531-13.328s-33.319-19.991-46.646-31.098l-33.319 37.761c8.885 8.885 17.77 15.549 28.876 22.213s19.991 13.328 33.319 17.77 24.434 8.885 35.54 11.106 26.655 4.443 39.983 4.443c19.991 0 39.983-2.221 55.531-8.885s31.098-13.328 42.204-24.434 19.991-24.434 26.655-39.983c6.664-15.549 8.885-33.319 8.885-53.31 0-17.77-2.221-35.54-8.885-53.31s-13.328-33.319-24.434-48.868-22.213-33.319-35.54-48.868-28.876-33.319-44.425-51.089l-91.072-97.735v-2.221h224.347v-53.31zM790.768 233.649c0 8.885 0 15.549 2.221 19.991s4.443 11.106 8.885 13.328 8.885 6.664 13.328 8.885 11.106 2.221 15.549 2.221c6.664 0 11.106 0 15.549-2.221s8.885-4.443 13.328-8.885 6.664-8.885 8.885-13.328 2.221-13.328 2.221-19.991c0-8.885 0-15.549-2.221-19.991s-4.443-11.106-8.885-13.328-8.885-6.664-13.328-8.885-11.106-2.221-15.549-2.221c-6.664 0-11.106 0-15.549 2.221s-8.885 4.443-13.328 8.885-6.664 8.885-8.885 13.328-2.221 11.106-2.221 19.991zM970.69 233.649c0 8.885 0 15.549 2.221 19.991s4.443 11.106 8.885 13.328 8.885 6.664 13.328 8.885 11.106 2.221 15.549 2.221c6.664 0 11.106 0 15.549-2.221s8.885-4.443 13.328-8.885 6.664-8.885 8.885-13.328 2.221-13.328 2.221-19.991c0-8.885 0-15.549-2.221-19.991s-4.443-11.106-8.885-13.328-8.885-6.664-13.328-8.885-11.106-2.221-15.549-2.221c-6.664 0-11.106 0-15.549 2.221s-8.885 4.443-13.328 8.885-6.664 8.885-8.885 13.328-2.221 11.106-2.221 19.991z" />
<glyph unicode="&#xe912;" glyph-name="print" d="M906.664 192h-85.328c-17.664 0-32 14.336-32 32s14.336 32 32 32h85.328c29.398 0 53.336 23.938 53.336 53.336v277.328c0 29.398-23.938 53.336-53.336 53.336h-789.328c-29.398 0-53.336-23.938-53.336-53.336v-277.328c0-29.398 23.938-53.336 53.336-53.336h85.328c17.664 0 32-14.336 32-32s-14.336-32-32-32h-85.328c-64.727 0-117.336 52.609-117.336 117.336v277.328c0 64.727 52.609 117.336 117.336 117.336h789.328c64.727 0 117.336-52.609 117.336-117.336v-277.328c0-64.727-52.609-117.336-117.336-117.336zM736-64h-448c-64.727 0-117.336 52.609-117.336 117.336v320c0 17.664 14.336 32 32 32h618.672c17.664 0 32-14.336 32-32v-320c0-64.727-52.609-117.336-117.336-117.336zM234.664 341.336v-288c0-29.398 23.938-53.336 53.336-53.336h448c29.398 0 53.336 23.938 53.336 53.336v288zM693.336 192h-362.672c-17.664 0-32 14.336-32 32s14.336 32 32 32h362.672c17.664 0 32-14.336 32-32s-14.336-32-32-32zM693.336 64h-362.672c-17.664 0-32 14.336-32 32s14.336 32 32 32h362.672c17.664 0 32-14.336 32-32s-14.336-32-32-32zM821.336 640c-17.664 0-32 14.336-32 32v64.297c0 25.641-9.984 49.75-28.117 67.883l-63.664 63.664c-17.875 17.914-42.578 28.156-67.883 28.156h-341.672c-29.398 0-53.336-23.938-53.336-53.336v-170.664c0-17.664-14.336-32-32-32s-32 14.336-32 32v170.664c0 64.727 52.609 117.336 117.336 117.336h341.672c42.117 0 83.375-17.070 113.109-46.891l63.664-63.656c30.25-30.25 46.891-70.445 46.891-113.156v-64.297c0-17.664-14.336-32-32-32z" />
<glyph unicode="&#xe913;" glyph-name="radiobox" d="M512-64c-282.328 0-512 229.672-512 512s229.672 512 512 512 512-229.672 512-512-229.672-512-512-512zM512 896c-247.039 0-448-200.961-448-448s200.961-448 448-448 448 200.961 448 448-200.961 448-448 448zM464 277.336c-8.195 0-16.383 3.109-22.617 9.383l-138.664 138.664c-12.5 12.508-12.5 32.773 0 45.273s32.766 12.5 45.273 0l116.047-116.055 254.727 254.719c12.5 12.5 32.766 12.5 45.266 0s12.5-32.766 0-45.266l-277.336-277.336c-6.313-6.273-14.5-9.383-22.695-9.383z" />
<glyph unicode="&#xe914;" glyph-name="search" d="M405.323 149.33c-223.485 0-405.323 181.838-405.323 405.315 0 223.485 181.838 405.323 405.323 405.323 223.477 0 405.315-181.838 405.315-405.323 0-223.477-181.838-405.315-405.315-405.315zM405.323 895.97c-188.197 0-341.325-153.128-341.325-341.325s153.128-341.317 341.325-341.317c188.197 0 341.317 153.12 341.317 341.317s-153.12 341.325-341.317 341.325zM991.969-64c-8.195 0-16.382 3.117-22.616 9.383l-322.545 322.552c-12.5 12.5-12.5 32.765 0 45.272 12.5 12.5 32.765 12.5 45.264 0l322.552-322.552c12.5-12.5 12.5-32.765 0-45.272-6.273-6.265-14.46-9.383-22.656-9.383z" />
<glyph unicode="&#xe915;" glyph-name="search-minus" d="M405.323 149.33c-223.485 0-405.323 181.838-405.323 405.315 0 223.485 181.838 405.323 405.323 405.323 223.477 0 405.315-181.838 405.315-405.323 0-223.477-181.838-405.315-405.315-405.315zM405.323 895.97c-188.197 0-341.325-153.128-341.325-341.325s153.128-341.317 341.325-341.317c188.197 0 341.317 153.12 341.317 341.317s-153.12 341.325-341.317 341.325zM991.969-64c-8.195 0-16.382 3.117-22.616 9.383l-322.545 322.552c-12.5 12.5-12.5 32.765 0 45.272 12.5 12.5 32.765 12.5 45.264 0l322.552-322.552c12.5-12.5 12.5-32.765 0-45.272-6.273-6.265-14.46-9.383-22.656-9.383zM565.318 522.646h-319.99c-17.664 0-31.999 14.335-31.999 31.999s14.335 31.999 31.999 31.999h319.99c17.664 0 31.999-14.335 31.999-31.999s-14.335-31.999-31.999-31.999z" />
<glyph unicode="&#xe916;" glyph-name="search-plus" d="M405.323 149.33c-223.485 0-405.323 181.838-405.323 405.315 0 223.485 181.838 405.323 405.323 405.323 223.477 0 405.315-181.838 405.315-405.323 0-223.477-181.838-405.315-405.315-405.315zM405.323 895.97c-188.197 0-341.325-153.128-341.325-341.325s153.128-341.317 341.325-341.317c188.197 0 341.317 153.12 341.317 341.317s-153.12 341.325-341.317 341.325zM991.969-64c-8.195 0-16.382 3.117-22.616 9.383l-322.545 322.552c-12.5 12.5-12.5 32.765 0 45.272 12.5 12.5 32.765 12.5 45.264 0l322.552-322.552c12.5-12.5 12.5-32.765 0-45.272-6.273-6.265-14.46-9.383-22.656-9.383zM565.318 522.646h-319.99c-17.664 0-31.999 14.335-31.999 31.999s14.335 31.999 31.999 31.999h319.99c17.664 0 31.999-14.335 31.999-31.999s-14.335-31.999-31.999-31.999zM405.323 362.651c-17.664 0-31.999 14.335-31.999 31.999v319.99c0 17.664 14.335 31.999 31.999 31.999s31.999-14.335 31.999-31.999v-319.99c0-17.664-14.335-31.999-31.999-31.999z" />
<glyph unicode="&#xe917;" glyph-name="share" d="M820.664 640c-88.188 0-160 71.766-160 160s71.813 160 160 160c88.195 0 160-71.766 160-160s-71.805-160-160-160zM820.664 896c-52.906 0-96-43.047-96-96s43.094-96 96-96 96 43.047 96 96-43.094 96-96 96zM820.664-64c-88.188 0-160 71.766-160 160s71.813 160 160 160c88.195 0 160-71.766 160-160s-71.805-160-160-160zM820.664 192c-52.906 0-96-43.047-96-96s43.094-96 96-96 96 43.047 96 96-43.094 96-96 96zM202 288c-88.195 0-160 71.766-160 160s71.805 160 160 160 160-71.766 160-160-71.805-160-160-160zM202 544c-52.906 0-96-43.047-96-96s43.094-96 96-96 96 43.047 96 96-43.094 96-96 96zM313.406 479.148c-11.141 0-21.977 5.805-27.82 16.125-8.75 15.359-3.414 34.906 11.945 43.648l395.906 225.711c15.313 8.828 34.898 3.453 43.602-11.953 8.75-15.359 3.414-34.898-11.945-43.648l-395.906-225.703c-4.992-2.813-10.406-4.18-15.781-4.18zM709.266 127.148c-5.375 0-10.797 1.367-15.789 4.219l-395.906 225.711c-15.359 8.742-20.688 28.289-11.945 43.648 8.703 15.398 28.25 20.734 43.609 11.945l395.898-225.703c15.359-8.75 20.695-28.289 11.953-43.648-5.891-10.367-16.727-16.172-27.82-16.172z" />
<glyph unicode="&#xe918;" glyph-name="settings-1" d="M512 713.481c-146.015 0-265.481-119.467-265.481-265.481s119.467-265.481 265.481-265.481c146.015 0 265.481 119.467 265.481 265.481s-119.467 265.481-265.481 265.481zM512 220.444c-125.156 0-227.556 102.4-227.556 227.556s102.4 227.556 227.556 227.556 227.556-102.4 227.556-227.556-102.4-227.556-227.556-227.556zM970.904 561.778h-37.926c-9.481 36.030-24.652 70.163-43.615 104.296l26.548 26.548c9.481 9.481 15.17 22.756 15.17 37.926 0 13.274-5.689 26.548-15.17 37.926l-87.23 87.23c-18.963 18.963-54.993 20.859-73.956 0l-26.548-26.548c-32.237 18.963-66.37 32.237-104.296 43.615v37.926c0 28.444-22.756 53.096-53.096 53.096h-121.363c-28.444 0-53.096-22.756-53.096-53.096v-37.926c-36.030-9.481-70.163-24.652-104.296-43.615l-26.548 26.548c-20.859 20.859-54.993 20.859-73.956 0l-87.23-87.23c-9.481-9.481-15.17-22.756-15.17-37.926 0-13.274 5.689-26.548 15.17-37.926l26.548-26.548c-18.963-32.237-32.237-66.37-43.615-104.296h-37.926c-28.444 0-53.096-22.756-53.096-53.096v-121.363c0-28.444 22.756-53.096 53.096-53.096h37.926c9.481-36.030 24.652-70.163 43.615-104.296l-26.548-26.548c-9.481-9.481-15.17-22.756-15.17-37.926 0-13.274 5.689-26.548 15.17-37.926l87.23-87.23c18.963-20.859 54.993-20.859 73.956 0l26.548 26.548c32.237-18.963 66.37-32.237 104.296-43.615v-37.926c0-28.444 22.756-53.096 53.096-53.096h121.363c28.444 0 53.096 22.756 53.096 53.096v37.926c36.030 9.481 70.163 24.652 104.296 43.615l26.548-26.548c20.859-20.859 54.993-18.963 73.956 0l87.23 87.23c9.481 9.481 15.17 22.756 15.17 37.926 0 13.274-5.689 26.548-15.17 37.926l-26.548 26.548c18.963 32.237 32.237 66.37 43.615 104.296h37.926c28.444 0 53.096 22.756 53.096 53.096v121.363c0 30.341-22.756 53.096-53.096 53.096zM986.074 387.319c0-7.585-5.689-15.17-15.17-15.17h-68.267l-3.793-15.17c-9.481-41.719-26.548-83.437-49.304-119.467l-7.585-13.274 47.407-47.407c5.689-5.689 5.689-15.17 0-20.859l-87.23-87.23c-5.689-5.689-15.17-5.689-20.859 0l-47.407 47.407-13.274-7.585c-36.030-22.756-77.748-39.822-119.467-49.304l-15.17-3.793v-68.267c0-7.585-5.689-15.17-15.17-15.17h-121.363c-7.585 0-15.17 5.689-15.17 15.17v68.267l-15.17 3.793c-41.719 9.481-83.437 26.548-119.467 49.304l-13.274 7.585-47.407-47.407c-5.689-5.689-15.17-5.689-20.859 0l-87.23 87.23c-5.689 5.689-5.689 15.17 0 20.859l47.407 47.407-7.585 13.274c-22.756 37.926-39.822 77.748-49.304 119.467l-3.793 15.17h-68.267c-7.585 0-15.17 5.689-15.17 15.17v121.363c0 7.585 5.689 15.17 15.17 15.17h68.267l3.793 15.17c9.481 41.719 26.548 83.437 49.304 119.467l7.585 13.274-47.407 47.407c-5.689 5.689-5.689 15.17 0 20.859l87.23 87.23c5.689 5.689 15.17 5.689 20.859 0l47.407-47.407 13.274 7.585c37.926 22.756 77.748 39.822 119.467 49.304l15.17 3.793v68.267c0 7.585 5.689 15.17 15.17 15.17h121.363c7.585 0 15.17-5.689 15.17-15.17v-68.267l15.17-3.793c41.719-9.481 83.437-26.548 119.467-49.304l13.274-7.585 47.407 47.407c5.689 5.689 15.17 5.689 20.859 0l87.23-87.23c5.689-5.689 5.689-15.17 0-20.859l-47.407-47.407 7.585-13.274c22.756-36.030 39.822-77.748 49.304-119.467l3.793-15.17h68.267c7.585 0 15.17-5.689 15.17-15.17v-121.363z" />
<glyph unicode="&#xe919;" glyph-name="star" d="M1022.596 567.377c-3.363 10.298-12.19 17.654-22.909 19.336l-319.46 45.397-143.757 288.985c-4.834 9.668-14.712 15.763-25.431 15.763v0c-10.719 0-20.597-6.095-25.431-15.973l-141.866-289.826-319.46-47.499c-10.719-1.681-19.546-9.037-22.909-19.336s-0.42-21.648 7.356-29.004l231.819-224.673-53.594-318.199c-1.892-10.719 2.522-21.437 11.349-27.743 4.834-3.573 10.719-5.464 16.604-5.464 4.624 0 9.037 1.051 13.241 3.363l285.202 151.113 286.043-149.432c4.203-2.102 8.617-3.153 13.031-3.153v0c15.553 0 28.373 12.82 28.373 28.373 0 2.312-0.21 4.414-0.841 6.515l-55.275 316.308 230.348 225.934c8.197 7.566 10.929 18.915 7.566 29.214zM734.662 342.284c-6.725-6.515-9.668-15.973-7.987-25.221l48.129-275.955-248.422 129.676c-8.197 4.414-18.075 4.203-26.482 0l-247.582-131.147 46.448 276.375c1.471 9.248-1.471 18.495-8.197 25.010l-200.924 195.039 277.216 41.194c9.248 1.471 17.234 7.146 21.227 15.553l123.16 251.575 124.842-250.944c4.203-8.407 12.19-14.081 21.437-15.553l277.426-39.512-200.293-196.090z" />
<glyph unicode="&#xe91a;" glyph-name="star1" d="M1021.322 567.236c-6.742 20.735-25.133 35.415-46.805 37.376l-295.599 26.836-116.822 273.505c-8.625 20.094-28.25 33.063-50.095 33.063s-41.477-12.969-50.048-33.063l-116.822-273.505-295.646-26.836c-21.672-2-40.024-16.68-46.805-37.376-6.742-20.735-0.516-43.477 15.875-57.853l223.449-195.933-65.884-290.177c-4.82-21.336 3.461-43.399 21.164-56.196 9.516-6.914 20.696-10.367 31.915-10.367 9.641 0 19.289 2.563 27.907 7.719l254.895 152.409 254.848-152.409c18.696-11.172 42.204-10.149 59.868 2.648 17.703 12.797 25.985 34.86 21.164 56.196l-65.884 290.177 223.449 195.933c16.383 14.375 22.618 37.071 15.875 57.853z" />
<glyph unicode="&#xe91b;" glyph-name="star2" d="M0.16 760.969c0-109.611 0.641-197.428 1.282-195.185 6.090 19.871 22.756 34.614 43.588 38.46 4.647 0.801 73.875 7.372 153.68 14.583s145.507 13.461 145.988 14.102c0.481 0.481 26.762 61.536 58.331 135.572 31.409 74.036 59.132 138.136 61.376 142.302 7.532 14.102 20.672 23.397 38.14 26.762 20.833 4.167 44.389-5.929 55.286-23.557 2.083-3.205 30.127-67.946 62.498-143.745l58.972-137.976 150.315-13.782c106.246-9.775 152.719-14.583 158.327-16.506 16.025-5.288 29.486-19.551 34.614-36.217 0.641-2.244 1.282 85.574 1.282 195.185l0.16 199.031h-1024l0.16-199.031zM0 237.751v-301.751h1024v301.751c-0.16 273.547-0.321 300.95-2.564 294.54-1.442-3.846-4.006-9.455-5.929-12.5s-54.966-50.479-117.624-105.605c-62.818-55.126-114.259-101.278-114.259-102.56s14.743-67.465 32.851-146.95c23.557-103.522 32.851-147.591 32.851-154.642 0-21.474-14.262-42.306-34.133-49.678-11.859-4.487-28.525-4.647-39.101-0.641-4.327 1.603-65.222 37.338-135.412 79.324s-128.040 76.439-128.681 76.439c-0.481 0-58.491-34.454-128.681-76.439s-131.085-77.721-135.412-79.324c-10.577-4.006-27.403-3.846-39.101 0.641-19.871 7.372-34.133 28.204-34.133 49.678 0 7.211 9.295 50.799 32.851 154.481 18.108 79.484 32.851 145.668 32.851 146.95 0 1.442-51.44 47.594-114.098 102.721-62.818 55.126-115.861 102.721-117.784 105.605-1.923 3.045-4.487 8.654-5.929 12.5-2.244 6.41-2.404-20.993-2.564-294.54z" />
<glyph unicode="&#xe91c;" glyph-name="up-arrow" d="M1011.49 243.502l-469.325 469.325c-16.682 16.682-43.647 16.682-60.329 0l-469.325-469.325c-16.682-16.682-16.682-43.647 0-60.329s43.647-16.682 60.329 0l439.159 439.159 439.159-439.159c8.32-8.32 19.242-12.502 30.165-12.502s21.846 4.182 30.165 12.502c16.682 16.682 16.682 43.647 0 60.329z" />
<glyph unicode="&#xe91d;" glyph-name="user" d="M512 960c-148.878 0-270-121.122-270-270s121.122-270 270-270 270 121.122 270 270-121.122 270-270 270zM512 480c-115.794 0-210 94.206-210 210s94.206 210 210 210c115.794 0 210-94.206 210-210s-94.206-210-210-210zM847.932 243.61c-73.92 75.056-171.914 116.39-275.932 116.39h-120c-104.016 0-202.012-41.334-275.932-116.39-73.558-74.688-114.068-173.276-114.068-277.61 0-16.568 13.432-30 30-30h840c16.568 0 30 13.432 30 30 0 104.334-40.51 202.922-114.068 277.61zM123.32-4c15.030 170.172 156.702 304 328.68 304h120c171.978 0 313.65-133.828 328.68-304h-777.36z" />
<glyph unicode="&#xe91e;" glyph-name="image" d="M410.861 433.956c82.169 0 148.774 66.605 148.774 148.774s-66.605 148.774-148.774 148.774c-82.169 0-148.774-66.605-148.774-148.774 0.094-82.126 66.648-148.68 148.774-148.774zM410.861 687.57c57.892 0 104.823-46.93 104.823-104.823s-46.93-104.823-104.823-104.823-104.823 46.93-104.823 104.823c0.069 57.867 46.956 104.754 104.823 104.823zM914.123 854.586h-804.244c-60.657-0.069-109.81-49.222-109.879-109.879v-593.345c0.069-60.657 49.222-109.81 109.879-109.879h804.244c60.657 0.069 109.81 49.222 109.879 109.879v593.345c-0.069 60.657-49.222 109.81-109.879 109.879zM109.879 810.634h804.244c36.389-0.043 65.884-29.53 65.927-65.927v-433.257l-131.485 186.296c-20.396 28.886-53.446 46.201-88.804 46.51-35.367 0.309-68.717-16.413-89.611-44.947l-149.658-204.332c-20.834-28.56-60.519-35.548-89.852-15.821l-111.888 74.872c-36.749 24.654-84.71 24.817-121.622 0.403l-153.169-102.007v492.283c0.043 36.389 29.53 65.884 65.919 65.927zM914.123 85.434h-804.244c-36.397 0.043-65.884 29.539-65.927 65.927v48.244l177.437 118.163c22.139 14.619 50.879 14.507 72.906-0.266l111.888-74.881c48.896-32.878 115.038-21.22 149.753 26.388l149.658 204.332c12.533 17.126 32.543 27.161 53.763 26.972s41.050-10.576 53.283-27.907l167.393-237.175v-83.868c-0.043-36.389-29.53-65.876-65.91-65.927z" />
</font>
</defs>
</svg>
